<mxfile host="app.diagrams.net" modified="2023-03-28T16:56:30.943Z" agent="5.0 (Windows NT 10.0; Win64; x64) AppleWebKit/537.36 (KHTML, like Gecko) Chrome/87.0.4280.88 Safari/537.36" etag="49YwUFedddOrEQxr2Za6" version="21.0.8" type="github">
  <diagram name="第 1 页" id="qmDFM0nmGEh0HMb00vm9">
    <mxGraphModel dx="1687" dy="2113" grid="1" gridSize="10" guides="1" tooltips="1" connect="1" arrows="1" fold="1" page="1" pageScale="1" pageWidth="827" pageHeight="1169" math="0" shadow="0">
      <root>
        <mxCell id="0" />
        <mxCell id="1" parent="0" />
        <mxCell id="PLiOFuOKwe7vrc24gxof-3" style="edgeStyle=orthogonalEdgeStyle;rounded=0;orthogonalLoop=1;jettySize=auto;html=1;entryX=0.5;entryY=0;entryDx=0;entryDy=0;" edge="1" parent="1" source="PLiOFuOKwe7vrc24gxof-1" target="PLiOFuOKwe7vrc24gxof-2">
          <mxGeometry relative="1" as="geometry" />
        </mxCell>
        <mxCell id="PLiOFuOKwe7vrc24gxof-1" value="开始" style="ellipse;whiteSpace=wrap;html=1;" vertex="1" parent="1">
          <mxGeometry x="120" y="40" width="120" height="80" as="geometry" />
        </mxCell>
        <mxCell id="PLiOFuOKwe7vrc24gxof-5" style="edgeStyle=orthogonalEdgeStyle;rounded=0;orthogonalLoop=1;jettySize=auto;html=1;entryX=0.5;entryY=0;entryDx=0;entryDy=0;entryPerimeter=0;" edge="1" parent="1" source="PLiOFuOKwe7vrc24gxof-2" target="PLiOFuOKwe7vrc24gxof-4">
          <mxGeometry relative="1" as="geometry" />
        </mxCell>
        <mxCell id="PLiOFuOKwe7vrc24gxof-2" value="根据Key值计算哈希值(扰动函数)" style="rounded=0;whiteSpace=wrap;html=1;" vertex="1" parent="1">
          <mxGeometry x="120" y="200" width="120" height="60" as="geometry" />
        </mxCell>
        <mxCell id="PLiOFuOKwe7vrc24gxof-7" style="edgeStyle=orthogonalEdgeStyle;rounded=0;orthogonalLoop=1;jettySize=auto;html=1;exitX=0.5;exitY=1;exitDx=0;exitDy=0;exitPerimeter=0;entryX=0.5;entryY=0;entryDx=0;entryDy=0;" edge="1" parent="1" source="PLiOFuOKwe7vrc24gxof-4" target="PLiOFuOKwe7vrc24gxof-6">
          <mxGeometry relative="1" as="geometry" />
        </mxCell>
        <mxCell id="PLiOFuOKwe7vrc24gxof-35" style="edgeStyle=orthogonalEdgeStyle;rounded=0;orthogonalLoop=1;jettySize=auto;html=1;exitX=1;exitY=0.5;exitDx=0;exitDy=0;exitPerimeter=0;entryX=0;entryY=0.5;entryDx=0;entryDy=0;" edge="1" parent="1" source="PLiOFuOKwe7vrc24gxof-4" target="PLiOFuOKwe7vrc24gxof-32">
          <mxGeometry relative="1" as="geometry">
            <Array as="points">
              <mxPoint x="640" y="355" />
            </Array>
          </mxGeometry>
        </mxCell>
        <mxCell id="PLiOFuOKwe7vrc24gxof-4" value="Table空or&lt;br&gt;length==0" style="strokeWidth=2;html=1;shape=mxgraph.flowchart.decision;whiteSpace=wrap;" vertex="1" parent="1">
          <mxGeometry x="120" y="320" width="120" height="70" as="geometry" />
        </mxCell>
        <mxCell id="PLiOFuOKwe7vrc24gxof-11" style="edgeStyle=orthogonalEdgeStyle;rounded=0;orthogonalLoop=1;jettySize=auto;html=1;exitX=0.5;exitY=1;exitDx=0;exitDy=0;entryX=0.5;entryY=0;entryDx=0;entryDy=0;entryPerimeter=0;" edge="1" parent="1" source="PLiOFuOKwe7vrc24gxof-6" target="PLiOFuOKwe7vrc24gxof-9">
          <mxGeometry relative="1" as="geometry" />
        </mxCell>
        <mxCell id="PLiOFuOKwe7vrc24gxof-6" value="计算数组下标&lt;br&gt;（n-1）&amp;amp;hash" style="rounded=0;whiteSpace=wrap;html=1;" vertex="1" parent="1">
          <mxGeometry x="120" y="440" width="120" height="60" as="geometry" />
        </mxCell>
        <mxCell id="PLiOFuOKwe7vrc24gxof-8" value="否" style="text;html=1;align=center;verticalAlign=middle;resizable=0;points=[];autosize=1;strokeColor=none;fillColor=none;" vertex="1" parent="1">
          <mxGeometry x="170" y="395" width="40" height="30" as="geometry" />
        </mxCell>
        <mxCell id="PLiOFuOKwe7vrc24gxof-13" style="edgeStyle=orthogonalEdgeStyle;rounded=0;orthogonalLoop=1;jettySize=auto;html=1;" edge="1" parent="1" source="PLiOFuOKwe7vrc24gxof-9" target="PLiOFuOKwe7vrc24gxof-12">
          <mxGeometry relative="1" as="geometry" />
        </mxCell>
        <mxCell id="PLiOFuOKwe7vrc24gxof-17" style="edgeStyle=orthogonalEdgeStyle;rounded=0;orthogonalLoop=1;jettySize=auto;html=1;entryX=0;entryY=0.5;entryDx=0;entryDy=0;entryPerimeter=0;" edge="1" parent="1" source="PLiOFuOKwe7vrc24gxof-9" target="PLiOFuOKwe7vrc24gxof-16">
          <mxGeometry relative="1" as="geometry" />
        </mxCell>
        <mxCell id="PLiOFuOKwe7vrc24gxof-9" value="当前元素数组&lt;br&gt;下标是否为空" style="strokeWidth=2;html=1;shape=mxgraph.flowchart.decision;whiteSpace=wrap;" vertex="1" parent="1">
          <mxGeometry x="120" y="560" width="120" height="70" as="geometry" />
        </mxCell>
        <mxCell id="PLiOFuOKwe7vrc24gxof-28" style="edgeStyle=orthogonalEdgeStyle;rounded=0;orthogonalLoop=1;jettySize=auto;html=1;entryX=0.5;entryY=0;entryDx=0;entryDy=0;entryPerimeter=0;" edge="1" parent="1" source="PLiOFuOKwe7vrc24gxof-12" target="PLiOFuOKwe7vrc24gxof-22">
          <mxGeometry relative="1" as="geometry" />
        </mxCell>
        <mxCell id="PLiOFuOKwe7vrc24gxof-12" value="直接插入" style="rounded=0;whiteSpace=wrap;html=1;" vertex="1" parent="1">
          <mxGeometry x="120" y="680" width="120" height="60" as="geometry" />
        </mxCell>
        <mxCell id="PLiOFuOKwe7vrc24gxof-15" value="是" style="text;html=1;align=center;verticalAlign=middle;resizable=0;points=[];autosize=1;strokeColor=none;fillColor=none;" vertex="1" parent="1">
          <mxGeometry x="160" y="630" width="40" height="30" as="geometry" />
        </mxCell>
        <mxCell id="PLiOFuOKwe7vrc24gxof-20" style="edgeStyle=orthogonalEdgeStyle;rounded=0;orthogonalLoop=1;jettySize=auto;html=1;exitX=0.5;exitY=1;exitDx=0;exitDy=0;exitPerimeter=0;entryX=0.5;entryY=0;entryDx=0;entryDy=0;" edge="1" parent="1" source="PLiOFuOKwe7vrc24gxof-16" target="PLiOFuOKwe7vrc24gxof-19">
          <mxGeometry relative="1" as="geometry" />
        </mxCell>
        <mxCell id="PLiOFuOKwe7vrc24gxof-42" style="edgeStyle=orthogonalEdgeStyle;rounded=0;orthogonalLoop=1;jettySize=auto;html=1;entryX=0;entryY=0.5;entryDx=0;entryDy=0;entryPerimeter=0;" edge="1" parent="1" source="PLiOFuOKwe7vrc24gxof-16" target="PLiOFuOKwe7vrc24gxof-36">
          <mxGeometry relative="1" as="geometry">
            <Array as="points">
              <mxPoint x="860" y="595" />
              <mxPoint x="860" y="225" />
            </Array>
          </mxGeometry>
        </mxCell>
        <mxCell id="PLiOFuOKwe7vrc24gxof-43" value="否" style="edgeLabel;html=1;align=center;verticalAlign=middle;resizable=0;points=[];" vertex="1" connectable="0" parent="PLiOFuOKwe7vrc24gxof-42">
          <mxGeometry x="-0.0164" y="1" relative="1" as="geometry">
            <mxPoint as="offset" />
          </mxGeometry>
        </mxCell>
        <mxCell id="PLiOFuOKwe7vrc24gxof-16" value="Key是否存在" style="strokeWidth=2;html=1;shape=mxgraph.flowchart.decision;whiteSpace=wrap;" vertex="1" parent="1">
          <mxGeometry x="300" y="560" width="120" height="70" as="geometry" />
        </mxCell>
        <mxCell id="PLiOFuOKwe7vrc24gxof-18" value="否" style="text;html=1;align=center;verticalAlign=middle;resizable=0;points=[];autosize=1;strokeColor=none;fillColor=none;" vertex="1" parent="1">
          <mxGeometry x="240" y="565" width="40" height="30" as="geometry" />
        </mxCell>
        <mxCell id="PLiOFuOKwe7vrc24gxof-29" style="edgeStyle=orthogonalEdgeStyle;rounded=0;orthogonalLoop=1;jettySize=auto;html=1;exitX=0.5;exitY=1;exitDx=0;exitDy=0;entryX=0.5;entryY=0.286;entryDx=0;entryDy=0;entryPerimeter=0;" edge="1" parent="1" source="PLiOFuOKwe7vrc24gxof-19" target="PLiOFuOKwe7vrc24gxof-22">
          <mxGeometry relative="1" as="geometry">
            <Array as="points">
              <mxPoint x="360" y="860" />
              <mxPoint x="180" y="860" />
            </Array>
          </mxGeometry>
        </mxCell>
        <mxCell id="PLiOFuOKwe7vrc24gxof-19" value="值覆盖" style="rounded=0;whiteSpace=wrap;html=1;" vertex="1" parent="1">
          <mxGeometry x="300" y="680" width="120" height="60" as="geometry" />
        </mxCell>
        <mxCell id="PLiOFuOKwe7vrc24gxof-21" value="是" style="text;html=1;align=center;verticalAlign=middle;resizable=0;points=[];autosize=1;strokeColor=none;fillColor=none;" vertex="1" parent="1">
          <mxGeometry x="350" y="635" width="40" height="30" as="geometry" />
        </mxCell>
        <mxCell id="PLiOFuOKwe7vrc24gxof-26" style="edgeStyle=orthogonalEdgeStyle;rounded=0;orthogonalLoop=1;jettySize=auto;html=1;exitX=0.5;exitY=1;exitDx=0;exitDy=0;exitPerimeter=0;entryX=0.5;entryY=0;entryDx=0;entryDy=0;entryPerimeter=0;" edge="1" parent="1" source="PLiOFuOKwe7vrc24gxof-22" target="PLiOFuOKwe7vrc24gxof-25">
          <mxGeometry relative="1" as="geometry" />
        </mxCell>
        <mxCell id="PLiOFuOKwe7vrc24gxof-85" style="edgeStyle=orthogonalEdgeStyle;rounded=0;orthogonalLoop=1;jettySize=auto;html=1;entryX=0;entryY=0.5;entryDx=0;entryDy=0;" edge="1" parent="1" source="PLiOFuOKwe7vrc24gxof-22" target="PLiOFuOKwe7vrc24gxof-73">
          <mxGeometry relative="1" as="geometry" />
        </mxCell>
        <mxCell id="PLiOFuOKwe7vrc24gxof-86" value="是" style="edgeLabel;html=1;align=center;verticalAlign=middle;resizable=0;points=[];" vertex="1" connectable="0" parent="PLiOFuOKwe7vrc24gxof-85">
          <mxGeometry x="-0.2042" y="-1" relative="1" as="geometry">
            <mxPoint as="offset" />
          </mxGeometry>
        </mxCell>
        <mxCell id="PLiOFuOKwe7vrc24gxof-22" value="容量判断是否超过阈值++size &amp;gt; threeshold" style="strokeWidth=2;html=1;shape=mxgraph.flowchart.decision;whiteSpace=wrap;" vertex="1" parent="1">
          <mxGeometry x="120" y="940" width="120" height="70" as="geometry" />
        </mxCell>
        <mxCell id="PLiOFuOKwe7vrc24gxof-25" value="结束" style="strokeWidth=2;html=1;shape=mxgraph.flowchart.start_1;whiteSpace=wrap;" vertex="1" parent="1">
          <mxGeometry x="120" y="1230" width="120" height="60" as="geometry" />
        </mxCell>
        <mxCell id="PLiOFuOKwe7vrc24gxof-27" value="否" style="text;html=1;align=center;verticalAlign=middle;resizable=0;points=[];autosize=1;strokeColor=none;fillColor=none;" vertex="1" parent="1">
          <mxGeometry x="160" y="1000" width="40" height="30" as="geometry" />
        </mxCell>
        <mxCell id="PLiOFuOKwe7vrc24gxof-30" value="插入" style="whiteSpace=wrap;html=1;" vertex="1" parent="1">
          <mxGeometry x="110" y="-80" width="160" height="40" as="geometry" />
        </mxCell>
        <mxCell id="PLiOFuOKwe7vrc24gxof-31" value="扩容" style="whiteSpace=wrap;html=1;" vertex="1" parent="1">
          <mxGeometry x="640" y="-80" width="160" height="40" as="geometry" />
        </mxCell>
        <mxCell id="PLiOFuOKwe7vrc24gxof-33" style="edgeStyle=orthogonalEdgeStyle;rounded=0;orthogonalLoop=1;jettySize=auto;html=1;entryX=1;entryY=0.617;entryDx=0;entryDy=0;entryPerimeter=0;" edge="1" parent="1" source="PLiOFuOKwe7vrc24gxof-32" target="PLiOFuOKwe7vrc24gxof-6">
          <mxGeometry relative="1" as="geometry">
            <Array as="points">
              <mxPoint x="710" y="477" />
            </Array>
          </mxGeometry>
        </mxCell>
        <mxCell id="PLiOFuOKwe7vrc24gxof-32" value="扩容 resize()" style="rounded=0;whiteSpace=wrap;html=1;" vertex="1" parent="1">
          <mxGeometry x="660" y="325" width="120" height="60" as="geometry" />
        </mxCell>
        <mxCell id="PLiOFuOKwe7vrc24gxof-40" style="edgeStyle=orthogonalEdgeStyle;rounded=0;orthogonalLoop=1;jettySize=auto;html=1;entryX=0;entryY=0.5;entryDx=0;entryDy=0;" edge="1" parent="1" source="PLiOFuOKwe7vrc24gxof-36" target="PLiOFuOKwe7vrc24gxof-39">
          <mxGeometry relative="1" as="geometry" />
        </mxCell>
        <mxCell id="PLiOFuOKwe7vrc24gxof-41" value="是" style="edgeLabel;html=1;align=center;verticalAlign=middle;resizable=0;points=[];" vertex="1" connectable="0" parent="PLiOFuOKwe7vrc24gxof-40">
          <mxGeometry x="-0.1944" y="4" relative="1" as="geometry">
            <mxPoint as="offset" />
          </mxGeometry>
        </mxCell>
        <mxCell id="PLiOFuOKwe7vrc24gxof-45" style="edgeStyle=orthogonalEdgeStyle;rounded=0;orthogonalLoop=1;jettySize=auto;html=1;entryX=0.5;entryY=0;entryDx=0;entryDy=0;" edge="1" parent="1" source="PLiOFuOKwe7vrc24gxof-36" target="PLiOFuOKwe7vrc24gxof-44">
          <mxGeometry relative="1" as="geometry" />
        </mxCell>
        <mxCell id="PLiOFuOKwe7vrc24gxof-36" value="tab[i]是否为&lt;br&gt;treeNode" style="strokeWidth=2;html=1;shape=mxgraph.flowchart.decision;whiteSpace=wrap;" vertex="1" parent="1">
          <mxGeometry x="1040" y="190" width="120" height="70" as="geometry" />
        </mxCell>
        <mxCell id="PLiOFuOKwe7vrc24gxof-37" value="链表" style="whiteSpace=wrap;html=1;" vertex="1" parent="1">
          <mxGeometry x="1020" y="-80" width="160" height="40" as="geometry" />
        </mxCell>
        <mxCell id="PLiOFuOKwe7vrc24gxof-38" value="红黑树" style="whiteSpace=wrap;html=1;" vertex="1" parent="1">
          <mxGeometry x="1440" y="-80" width="160" height="40" as="geometry" />
        </mxCell>
        <mxCell id="PLiOFuOKwe7vrc24gxof-66" style="edgeStyle=orthogonalEdgeStyle;rounded=0;orthogonalLoop=1;jettySize=auto;html=1;exitX=1;exitY=0.5;exitDx=0;exitDy=0;" edge="1" parent="1" source="PLiOFuOKwe7vrc24gxof-39" target="PLiOFuOKwe7vrc24gxof-22">
          <mxGeometry relative="1" as="geometry">
            <Array as="points">
              <mxPoint x="1600" y="225" />
              <mxPoint x="1600" y="860" />
              <mxPoint x="180" y="860" />
            </Array>
          </mxGeometry>
        </mxCell>
        <mxCell id="PLiOFuOKwe7vrc24gxof-39" value="红黑树中插入元素" style="rounded=0;whiteSpace=wrap;html=1;" vertex="1" parent="1">
          <mxGeometry x="1460" y="195" width="120" height="60" as="geometry" />
        </mxCell>
        <mxCell id="PLiOFuOKwe7vrc24gxof-49" style="edgeStyle=orthogonalEdgeStyle;rounded=0;orthogonalLoop=1;jettySize=auto;html=1;exitX=0.5;exitY=1;exitDx=0;exitDy=0;entryX=0.5;entryY=0;entryDx=0;entryDy=0;entryPerimeter=0;" edge="1" parent="1" source="PLiOFuOKwe7vrc24gxof-44" target="PLiOFuOKwe7vrc24gxof-47">
          <mxGeometry relative="1" as="geometry" />
        </mxCell>
        <mxCell id="PLiOFuOKwe7vrc24gxof-44" value="for循环遍历插入节点" style="rounded=0;whiteSpace=wrap;html=1;" vertex="1" parent="1">
          <mxGeometry x="1040" y="325" width="120" height="60" as="geometry" />
        </mxCell>
        <mxCell id="PLiOFuOKwe7vrc24gxof-46" value="否" style="text;html=1;align=center;verticalAlign=middle;resizable=0;points=[];autosize=1;strokeColor=none;fillColor=none;" vertex="1" parent="1">
          <mxGeometry x="1090" y="265" width="40" height="30" as="geometry" />
        </mxCell>
        <mxCell id="PLiOFuOKwe7vrc24gxof-51" style="edgeStyle=orthogonalEdgeStyle;rounded=0;orthogonalLoop=1;jettySize=auto;html=1;exitX=0.5;exitY=1;exitDx=0;exitDy=0;exitPerimeter=0;entryX=0.5;entryY=0;entryDx=0;entryDy=0;" edge="1" parent="1" source="PLiOFuOKwe7vrc24gxof-47" target="PLiOFuOKwe7vrc24gxof-50">
          <mxGeometry relative="1" as="geometry" />
        </mxCell>
        <mxCell id="PLiOFuOKwe7vrc24gxof-56" style="edgeStyle=orthogonalEdgeStyle;rounded=0;orthogonalLoop=1;jettySize=auto;html=1;exitX=1;exitY=0.5;exitDx=0;exitDy=0;exitPerimeter=0;entryX=0;entryY=0.5;entryDx=0;entryDy=0;entryPerimeter=0;" edge="1" parent="1" source="PLiOFuOKwe7vrc24gxof-47" target="PLiOFuOKwe7vrc24gxof-52">
          <mxGeometry relative="1" as="geometry" />
        </mxCell>
        <mxCell id="PLiOFuOKwe7vrc24gxof-47" value="链表长度大于8&lt;br&gt;TREEIFY_THRESHOLD" style="strokeWidth=2;html=1;shape=mxgraph.flowchart.decision;whiteSpace=wrap;" vertex="1" parent="1">
          <mxGeometry x="1040" y="470" width="120" height="70" as="geometry" />
        </mxCell>
        <mxCell id="PLiOFuOKwe7vrc24gxof-60" style="edgeStyle=orthogonalEdgeStyle;rounded=0;orthogonalLoop=1;jettySize=auto;html=1;entryX=0.5;entryY=0;entryDx=0;entryDy=0;entryPerimeter=0;" edge="1" parent="1" source="PLiOFuOKwe7vrc24gxof-50" target="PLiOFuOKwe7vrc24gxof-22">
          <mxGeometry relative="1" as="geometry">
            <Array as="points">
              <mxPoint x="1100" y="860" />
              <mxPoint x="180" y="860" />
            </Array>
          </mxGeometry>
        </mxCell>
        <mxCell id="PLiOFuOKwe7vrc24gxof-50" value="元素插入链表，若key存在直接覆盖value" style="rounded=0;whiteSpace=wrap;html=1;" vertex="1" parent="1">
          <mxGeometry x="1040" y="600" width="120" height="60" as="geometry" />
        </mxCell>
        <mxCell id="PLiOFuOKwe7vrc24gxof-54" style="edgeStyle=orthogonalEdgeStyle;rounded=0;orthogonalLoop=1;jettySize=auto;html=1;entryX=0;entryY=0.5;entryDx=0;entryDy=0;" edge="1" parent="1" source="PLiOFuOKwe7vrc24gxof-52" target="PLiOFuOKwe7vrc24gxof-53">
          <mxGeometry relative="1" as="geometry" />
        </mxCell>
        <mxCell id="PLiOFuOKwe7vrc24gxof-87" style="edgeStyle=orthogonalEdgeStyle;rounded=0;orthogonalLoop=1;jettySize=auto;html=1;exitX=0.5;exitY=1;exitDx=0;exitDy=0;exitPerimeter=0;" edge="1" parent="1" source="PLiOFuOKwe7vrc24gxof-52" target="PLiOFuOKwe7vrc24gxof-73">
          <mxGeometry relative="1" as="geometry">
            <Array as="points">
              <mxPoint x="1320" y="910" />
              <mxPoint x="720" y="910" />
            </Array>
          </mxGeometry>
        </mxCell>
        <mxCell id="PLiOFuOKwe7vrc24gxof-88" value="否" style="edgeLabel;html=1;align=center;verticalAlign=middle;resizable=0;points=[];" vertex="1" connectable="0" parent="PLiOFuOKwe7vrc24gxof-87">
          <mxGeometry x="-0.0086" y="-2" relative="1" as="geometry">
            <mxPoint x="-1" as="offset" />
          </mxGeometry>
        </mxCell>
        <mxCell id="PLiOFuOKwe7vrc24gxof-52" value="桶数组容量大于MIN_TREEIFY_CAPACITY" style="strokeWidth=2;html=1;shape=mxgraph.flowchart.decision;whiteSpace=wrap;" vertex="1" parent="1">
          <mxGeometry x="1260" y="470" width="120" height="70" as="geometry" />
        </mxCell>
        <mxCell id="PLiOFuOKwe7vrc24gxof-72" style="edgeStyle=orthogonalEdgeStyle;rounded=0;orthogonalLoop=1;jettySize=auto;html=1;endArrow=none;endFill=0;" edge="1" parent="1" source="PLiOFuOKwe7vrc24gxof-53">
          <mxGeometry relative="1" as="geometry">
            <mxPoint x="1600" y="504.99999999999955" as="targetPoint" />
          </mxGeometry>
        </mxCell>
        <mxCell id="PLiOFuOKwe7vrc24gxof-53" value="链表转红黑树" style="rounded=0;whiteSpace=wrap;html=1;" vertex="1" parent="1">
          <mxGeometry x="1460" y="475" width="120" height="60" as="geometry" />
        </mxCell>
        <mxCell id="PLiOFuOKwe7vrc24gxof-75" style="edgeStyle=orthogonalEdgeStyle;rounded=0;orthogonalLoop=1;jettySize=auto;html=1;exitX=1;exitY=0.5;exitDx=0;exitDy=0;entryX=0;entryY=0.5;entryDx=0;entryDy=0;" edge="1" parent="1" source="PLiOFuOKwe7vrc24gxof-73" target="PLiOFuOKwe7vrc24gxof-74">
          <mxGeometry relative="1" as="geometry" />
        </mxCell>
        <mxCell id="PLiOFuOKwe7vrc24gxof-73" value="扩容resize()" style="rounded=0;whiteSpace=wrap;html=1;" vertex="1" parent="1">
          <mxGeometry x="660" y="945" width="120" height="60" as="geometry" />
        </mxCell>
        <mxCell id="PLiOFuOKwe7vrc24gxof-81" style="edgeStyle=orthogonalEdgeStyle;rounded=0;orthogonalLoop=1;jettySize=auto;html=1;entryX=0.5;entryY=0;entryDx=0;entryDy=0;entryPerimeter=0;" edge="1" parent="1" source="PLiOFuOKwe7vrc24gxof-74" target="PLiOFuOKwe7vrc24gxof-76">
          <mxGeometry relative="1" as="geometry" />
        </mxCell>
        <mxCell id="PLiOFuOKwe7vrc24gxof-74" value="元素拆分(不需要重新计算hash)" style="rounded=0;whiteSpace=wrap;html=1;" vertex="1" parent="1">
          <mxGeometry x="850" y="945" width="120" height="60" as="geometry" />
        </mxCell>
        <mxCell id="PLiOFuOKwe7vrc24gxof-79" style="edgeStyle=orthogonalEdgeStyle;rounded=0;orthogonalLoop=1;jettySize=auto;html=1;exitX=1;exitY=0.5;exitDx=0;exitDy=0;exitPerimeter=0;entryX=0;entryY=0.5;entryDx=0;entryDy=0;" edge="1" parent="1" source="PLiOFuOKwe7vrc24gxof-76" target="PLiOFuOKwe7vrc24gxof-77">
          <mxGeometry relative="1" as="geometry" />
        </mxCell>
        <mxCell id="PLiOFuOKwe7vrc24gxof-84" style="edgeStyle=orthogonalEdgeStyle;rounded=0;orthogonalLoop=1;jettySize=auto;html=1;exitX=0.5;exitY=1;exitDx=0;exitDy=0;exitPerimeter=0;entryX=1;entryY=0.5;entryDx=0;entryDy=0;entryPerimeter=0;" edge="1" parent="1" source="PLiOFuOKwe7vrc24gxof-76" target="PLiOFuOKwe7vrc24gxof-25">
          <mxGeometry relative="1" as="geometry" />
        </mxCell>
        <mxCell id="PLiOFuOKwe7vrc24gxof-76" value="树节点元素小于6个" style="strokeWidth=2;html=1;shape=mxgraph.flowchart.decision;whiteSpace=wrap;" vertex="1" parent="1">
          <mxGeometry x="850" y="1050" width="120" height="70" as="geometry" />
        </mxCell>
        <mxCell id="PLiOFuOKwe7vrc24gxof-83" style="edgeStyle=orthogonalEdgeStyle;rounded=0;orthogonalLoop=1;jettySize=auto;html=1;entryX=1;entryY=0.5;entryDx=0;entryDy=0;entryPerimeter=0;" edge="1" parent="1" source="PLiOFuOKwe7vrc24gxof-77" target="PLiOFuOKwe7vrc24gxof-25">
          <mxGeometry relative="1" as="geometry">
            <Array as="points">
              <mxPoint x="1110" y="1260" />
            </Array>
          </mxGeometry>
        </mxCell>
        <mxCell id="PLiOFuOKwe7vrc24gxof-93" value="否" style="edgeLabel;html=1;align=center;verticalAlign=middle;resizable=0;points=[];" vertex="1" connectable="0" parent="PLiOFuOKwe7vrc24gxof-83">
          <mxGeometry x="0.3809" y="1" relative="1" as="geometry">
            <mxPoint as="offset" />
          </mxGeometry>
        </mxCell>
        <mxCell id="PLiOFuOKwe7vrc24gxof-77" value="元素拆分(不需要重新计算hash)" style="rounded=0;whiteSpace=wrap;html=1;" vertex="1" parent="1">
          <mxGeometry x="1050" y="1055" width="120" height="60" as="geometry" />
        </mxCell>
        <mxCell id="PLiOFuOKwe7vrc24gxof-80" value="是" style="text;html=1;align=center;verticalAlign=middle;resizable=0;points=[];autosize=1;strokeColor=none;fillColor=none;" vertex="1" parent="1">
          <mxGeometry x="990" y="1055" width="40" height="30" as="geometry" />
        </mxCell>
        <mxCell id="PLiOFuOKwe7vrc24gxof-89" value="是" style="text;html=1;align=center;verticalAlign=middle;resizable=0;points=[];autosize=1;strokeColor=none;fillColor=none;" vertex="1" parent="1">
          <mxGeometry x="1170" y="475" width="40" height="30" as="geometry" />
        </mxCell>
        <mxCell id="PLiOFuOKwe7vrc24gxof-90" value="是" style="text;html=1;align=center;verticalAlign=middle;resizable=0;points=[];autosize=1;strokeColor=none;fillColor=none;" vertex="1" parent="1">
          <mxGeometry x="1390" y="465" width="40" height="30" as="geometry" />
        </mxCell>
        <mxCell id="PLiOFuOKwe7vrc24gxof-91" value="否" style="text;html=1;align=center;verticalAlign=middle;resizable=0;points=[];autosize=1;strokeColor=none;fillColor=none;" vertex="1" parent="1">
          <mxGeometry x="1090" y="555" width="40" height="30" as="geometry" />
        </mxCell>
      </root>
    </mxGraphModel>
  </diagram>
</mxfile>
